HIERARCHY
ROOT Hips
{
	OFFSET 0.000000 0.000000 0.000000 
	CHANNELS 6 Xposition Yposition Zposition Yrotation Zrotation Xrotation 
	JOINT Lumbar
	{
		OFFSET 0.000000 0.000000 0.000000 
		CHANNELS 3 Zrotation Xrotation Yrotation
		JOINT Neck
		{
			OFFSET 0.000000 0.445665 0.000000 
			CHANNELS 3 Zrotation Xrotation Yrotation
			End Site
			{
				OFFSET 0.000000 0.227535 0.000000 
			}
		}
		JOINT RightShoulder
		{
			OFFSET 0.019635 0.377685 0.194865 
			CHANNELS 3 Zrotation Xrotation Yrotation
			JOINT RightElbow
			{
				OFFSET 0.000000 -0.243375 0.000000 
				CHANNELS 2 Zrotation Yrotation
				JOINT RightWrist
				{
					OFFSET 0.000000 -0.264825 0.000000 
					CHANNELS 2 Zrotation Xrotation
					End Site
					{
						OFFSET 0.006600 -0.176220 0.000990 
					}
				}
			}
		}
		JOINT LeftShoulder
		{
			OFFSET 0.019635 0.377685 -0.194865 
			CHANNELS 3 Zrotation Xrotation Yrotation
			JOINT LeftElbow
			{
				OFFSET 0.000000 -0.243375 0.000000 
				CHANNELS 2 Zrotation Yrotation
				JOINT LeftWrist
				{
					OFFSET 0.000000 -0.264825 0.000000 
					CHANNELS 2 Zrotation Xrotation
					End Site
					{
						OFFSET 0.006600 -0.176220 -0.000990 
					}
				}
			}
		}
	}
	JOINT RightHip
	{
		OFFSET 0.052140 -0.069960 0.075570 
		CHANNELS 3 Zrotation Xrotation Yrotation
		JOINT RightKnee
		{
			OFFSET 0.000000 -0.402270 0.000000 
			CHANNELS 1 Zrotation
			JOINT RightAnkle
			{
				OFFSET 0.000000 -0.404085 0.000000 
				CHANNELS 3 Zrotation Xrotation Yrotation
				End Site
				{
					OFFSET 0.204105 -0.089430 0.008415 
				}
			}
		}
	}
	JOINT LeftHip
	{
		OFFSET 0.052140 -0.069960 -0.075570 
		CHANNELS 3 Zrotation Xrotation Yrotation
		JOINT LeftKnee
		{
			OFFSET 0.000000 -0.402270 0.000000 
			CHANNELS 1 Zrotation
			JOINT LeftAnkle
			{
				OFFSET 0.000000 -0.404085 0.000000 
				CHANNELS 3 Zrotation Xrotation Yrotation
				End Site
				{
					OFFSET 0.204105 -0.089430 -0.008415 
				}
			}
		}
	}
}
MOTION
Frames: 27
Frame Time: 0.02
-0.39499 -0.04935 -0.54135 31.16747 -34.77925 -11.98046 52.20661 2.73103 1.61013 -1.50064 -13.00435 -2.11994 -21.00703 -17.86989 15.60433 105.84549 77.60703 -23.64227 -1.07293 157.89279 49.01231 84.71474 5.79991 -80.81337 -0.7545 -3.9268 35.80189 -15.35967 -8.33393 -2.43001 -12.75477 -4.82066 -4.92968 50.35886 -0.48618 14.98162 -19.82245 -8.09087 3.98797 4.2499
-0.39527 -0.04936 -0.54225 31.33985 -34.95821 -12.03607 52.10175 2.79946 1.83755 -0.74788 -13.33456 -2.11994 -21.11205 -17.91108 15.62796 106.03497 77.56673 -22.92323 -1.21675 157.50622 49.04646 88.98802 5.78177 -80.74476 -0.8507 -4.0037 35.68465 -15.38785 -12.80486 -2.08017 -12.83575 -1.86014 -3.44652 50.4697 -0.43849 15.64869 -19.79268 -8.03077 3.92057 4.21426
-0.39553 -0.0495 -0.54318 31.57924 -35.18564 -12.07518 52.06262 2.79232 2.18489 -0.17412 -13.31487 -2.11994 -21.30684 -18.06779 15.62885 106.2798 77.54651 -21.76353 -1.4586 156.75458 49.08732 86.43105 5.78722 -80.76469 -0.88271 -3.8891 35.56496 -15.44135 -18.56252 -1.67824 -12.89981 1.92964 -1.56282 50.6228 -0.38391 16.52199 -19.77774 -7.94466 3.83355 4.1679
-0.39579 -0.04957 -0.54409 31.78853 -35.38767 -12.1245 51.99416 2.82058 2.46503 0.46664 -13.45423 -2.11994 -21.45048 -18.16505 15.6434 106.49055 77.51219 -20.86453 -1.63659 156.19398 49.12183 87.17991 5.78808 -80.71925 -0.9369 -3.86416 35.44776 -15.47991 -23.60441 -1.31237 -12.98284 5.26334 0.10008 50.75329 -0.33467 17.26618 -19.7558 -7.87305 3.75808 4.12786
-0.39612 -0.04967 -0.54501 31.9955 -35.60356 -12.16264 51.92104 2.84542 2.80307 1.17106 -13.59156 -2.11994 -21.64386 -18.2852 15.63844 106.74207 77.49618 -19.7278 -1.88798 155.52142 49.16995 87.31601 5.78595 -80.69667 -0.99043 -3.81352 35.32564 -15.53324 -29.19736 -0.89584 -13.01956 8.93308 1.92811 50.89782 -0.27622 18.15888 -19.7348 -7.79034 3.6716 4.08178
-0.39628 -0.04973 -0.54593 32.22363 -35.80223 -12.2199 51.87413 2.8589 3.04799 1.69883 -13.6504 -2.11994 -21.75387 -18.38688 15.66945 106.92113 77.447 -18.97115 -2.0152 154.99652 49.19104 87.01043 5.78731 -80.67809 -1.04091 -3.77592 35.21267 -15.56188 -33.94946 -0.57159 -13.14751 12.09875 3.50654 51.0233 -0.2353 18.79233 -19.71543 -7.72444 3.60328 4.04568
-0.39598 -0.04966 -0.54688 32.49237 -35.94159 -12.33556 51.88384 2.86123 2.99853 1.78687 -13.58225 -2.11994 -21.59634 -18.41839 15.82287 106.88037 77.31332 -19.41742 -1.74651 154.98242 49.14114 87.2019 5.78687 -80.66665 -1.10834 -3.82867 35.1278 -15.51416 -36.055 -0.51791 -13.53954 13.6732 4.29911 51.08554 -0.24407 18.65029 -19.69682 -7.712 3.59075 4.04027
-0.39551 -0.04955 -0.54784 32.7803 -36.06194 -12.47066 51.91791 2.85432 2.85206 1.70213 -13.44673 -2.11994 -21.35359 -18.42687 16.0113 106.76536 77.14504 -20.25064 -1.35543 155.12801 49.06316 87.14189 5.78683 -80.66506 -1.1775 -3.90192 35.05177 -15.44107 -37.27032 -0.55817 -14.0218 14.70958 4.82549 51.12723 -0.27079 18.24213 -19.67938 -7.71723 3.59702 4.04519
-0.39512 -0.04946 -0.54879 33.06064 -36.19106 -12.59589 51.94101 2.85032 2.75435 1.69335 -13.33971 -2.11994 -21.15891 -18.44071 16.17287 106.68801 76.9837 -20.87546 -1.04052 155.19249 48.99437 87.13462 5.78698 -80.65932 -1.24403 -3.96307 34.97004 -15.38076 -38.902 -0.55322 -14.45814 15.99152 5.47355 51.17864 -0.28956 17.9616 -19.66148 -7.71388 3.59412 4.04505
-0.3947 -0.04936 -0.54978 33.33914 -36.3215 -12.72515 51.96611 2.84901 2.64084 1.68925 -13.22945 -2.11994 -20.9282 -18.47918 16.37857 106.59644 76.85512 -21.62418 -0.64315 155.28006 48.93991 87.15637 5.78688 -80.65335 -1.3157 -4.02904 34.89506 -15.31586 -40.53554 -0.557 -14.91703 17.30362 6.13556 51.23007 -0.30723 17.65929 -19.64379 -7.71192 3.59314 4.04606
-0.39432 -0.04927 -0.55069 33.62438 -36.44379 -12.85053 51.99177 2.84105 2.53604 1.63662 -13.11442 -2.11994 -20.75094 -18.46045 16.50248 106.51571 76.65609 -22.21039 -0.38598 155.36235 48.85007 87.14206 5.78692 -80.64984 -1.37781 -4.09234 34.80852 -15.2544 -41.92856 -0.56572 -15.34764 18.40735 6.69639 51.27584 -0.33153 17.33738 -19.62574 -7.71163 3.59291 4.04729
-0.39408 -0.04919 -0.55135 33.92977 -36.5501 -12.96327 52.01456 2.81594 2.47459 1.4934 -13.00534 -2.11994 -20.74267 -18.28018 16.37961 106.48635 76.21607 -22.27296 -0.55627 155.39203 48.65917 87.14683 5.78692 -80.65017 -1.41655 -4.14508 34.68466 -15.20652 -42.94232 -0.56419 -15.70416 19.1239 7.0731 51.31238 -0.36969 17.01771 -19.60649 -7.71164 3.58998 4.04659
-0.39389 -0.04911 -0.55193 34.23967 -36.6482 -13.07096 52.03643 2.78501 2.42543 1.30795 -12.89511 -2.11994 -20.79056 -18.04429 16.17566 106.46962 75.7156 -22.15783 -0.86939 155.41256 48.43563 87.14715 5.78691 -80.65285 -1.44537 -4.19502 34.54951 -15.16323 -43.72661 -0.56487 -16.02486 19.6356 7.35006 51.34343 -0.41392 16.68822 -19.58676 -7.71284 3.58728 4.04581
-0.39368 -0.04903 -0.55255 34.54323 -36.74864 -13.17926 52.05745 2.75786 2.37299 1.14202 -12.78541 -2.11994 -20.81186 -17.83941 16.01707 106.44456 75.27988 -22.11234 -1.10994 155.43846 48.23359 87.14561 5.78692 -80.65424 -1.4769 -4.2461 34.42164 -15.11912 -44.56438 -0.56536 -16.34421 20.19847 7.65019 51.37598 -0.45549 16.36776 -19.56711 -7.71362 3.58468 4.0451
-0.39347 -0.04895 -0.55317 34.86605 -36.85454 -13.29549 52.08485 2.72566 2.30766 0.96869 -12.67293 -2.11994 -20.8347 -17.60971 15.82375 106.42758 74.6893 -22.12403 -1.37894 155.46455 48.002 87.14667 5.78691 -80.65568 -1.51607 -4.29857 34.28491 -15.06883 -45.58287 -0.56547 -16.73887 20.91584 8.03261 51.41226 -0.49741 16.01835 -19.54806 -7.71452 3.58188 4.04458
-0.39327 -0.04887 -0.55376 35.14902 -36.94708 -13.39358 52.09823 2.70259 2.27314 0.80285 -12.5671 -2.11994 -20.86887 -17.41864 15.68307 106.3981 74.40271 -21.97315 -1.62377 155.48608 47.8251 87.14629 5.78691 -80.65901 -1.53691 -4.34691 34.16395 -15.03279 -46.18636 -0.56591 -16.96984 21.27501 8.22616 51.43942 -0.53963 15.73098 -19.5277 -7.71517 3.57928 4.04353
-0.39311 -0.0488 -0.55427 35.32526 -37.00732 -13.4443 52.07412 2.70732 2.32274 0.6706 -12.47917 -2.11994 -20.91985 -17.34884 15.70714 106.32798 75.01054 -21.3846 -1.7707 155.49616 47.80288 87.14628 5.78691 -80.65403 -1.51002 -4.38773 34.08891 -15.03543 -45.65285 -0.56533 -16.73159 20.64272 7.89517 51.44572 -0.58251 15.61273 -19.50333 -7.71526 3.57735 4.0411
-0.39297 -0.04875 -0.55476 35.46022 -37.05407 -13.47663 52.0354 2.72125 2.40302 0.54785 -12.39848 -2.11994 -20.9808 -17.31959 15.78672 106.24566 75.91907 -20.64334 -1.88813 155.50109 47.83777 87.14638 5.78691 -80.65362 -1.46493 -4.42388 34.0306 -15.05224 -44.71545 -0.56535 -16.33351 19.66415 7.38125 51.44279 -0.62514 15.55922 -19.47785 -7.71491 3.57549 4.03812
-0.39281 -0.04869 -0.55525 35.61121 -37.10537 -13.51626 52.00281 2.73026 2.46839 0.41982 -12.31536 -2.11994 -21.03813 -17.27144 15.84126 106.17144 76.66368 -19.99039 -2.01741 155.50872 47.84951 87.1463 5.78692 -80.65904 -1.42788 -4.45993 33.96424 -15.06247 -44.00755 -0.56487 -16.02615 18.88784 6.9738 51.442 -0.66698 15.48068 -19.4531 -7.71435 3.57336 4.0353
-0.39266 -0.04861 -0.55575 35.77427 -37.16288 -13.56 51.97318 2.74225 2.53821 0.29382 -12.22856 -2.11994 -21.0937 -17.22398 15.89296 106.08728 77.52113 -19.24898 -2.1588 155.51587 47.84828 87.14632 5.78692 -80.62957 -1.39146 -4.50504 33.89753 -15.07366 -43.12715 -0.56331 -15.6443 17.93618 6.47533 51.44884 -0.71292 15.38393 -19.427 -7.71544 3.57218 4.03278
-0.39251 -0.04858 -0.55623 35.90186 -37.20453 -13.59112 51.93287 2.75021 2.60588 0.167 -12.15112 -2.11994 -21.15436 -17.18462 15.96384 106.0202 78.21594 -18.66117 -2.26529 155.5213 47.88804 87.14632 5.78692 -80.67581 -1.34953 -4.5305 33.83801 -15.0859 -42.47555 -0.56684 -15.37627 17.24313 6.11036 51.43872 -0.75006 15.33957 -19.40394 -7.71314 3.56914 4.02958
-0.39233 -0.04863 -0.55669 35.94545 -37.20439 -13.58972 51.87534 2.74562 2.66032 0.03108 -12.09865 -2.11994 -21.22776 -17.16575 16.08355 106.00841 78.38686 -18.50542 -2.28933 155.53545 48.02671 87.14632 5.78692 -80.91231 -1.29694 -4.50014 33.77455 -15.0998 -42.88984 -0.56072 -15.4953 17.59145 6.28386 51.37537 -0.764 15.43384 -19.3853 -7.70026 3.55991 4.02405
-0.39215 -0.04873 -0.55714 35.95394 -37.18914 -13.57671 51.80577 2.73658 2.71134 -0.10493 -12.05534 -2.11994 -21.30506 -17.1528 16.21974 106.01332 78.38432 -18.51497 -2.27744 155.54498 48.20452 87.14633 5.78691 -81.22747 -1.23949 -4.45063 33.72173 -15.11392 -43.49437 -0.56417 -15.72879 18.17382 6.57838 51.29713 -0.76889 15.5768 -19.37057 -7.68426 3.549 4.01797
-0.39199 -0.04881 -0.55757 35.97607 -37.18159 -13.57046 51.73619 2.72899 2.76386 -0.23769 -12.00708 -2.11994 -21.38004 -17.13168 16.34201 106.00702 78.46228 -18.47017 -2.27671 155.54971 48.36526 87.14634 5.78691 -81.5191 -1.18419 -4.41172 33.67671 -15.12636 -43.78374 -0.57854 -15.88732 18.48341 6.73195 51.23112 -0.77716 15.69122 -19.35683 -7.6705 3.53949 4.0125
-0.39174 -0.04888 -0.55808 36.00689 -37.16966 -13.55724 51.68988 2.72393 2.8181 -0.38362 -11.9618 -2.11994 -21.45932 -17.13352 16.49141 106.01516 78.54348 -18.33596 -2.29629 155.58678 48.52646 87.14634 5.78691 -81.76216 -1.12834 -4.36485 33.57791 -15.14561 -44.99396 -0.52807 -16.135 19.45857 7.22889 51.14083 -0.7884 15.83525 -19.33132 -7.65311 3.52723 4.00544
-0.39168 -0.04898 -0.55843 36.01134 -37.16391 -13.55609 51.59164 2.7127 2.86701 -0.50238 -11.91314 -2.11994 -21.5284 -17.09037 16.58988 105.99789 78.57302 -18.42457 -2.26611 155.55121 48.69334 87.14635 5.78691 -82.12144 -1.07293 -4.32984 33.59471 -15.15098 -44.37485 -0.61545 -16.22894 19.13869 7.05818 51.0988 -0.79146 15.92798 -19.33135 -7.64273 3.5204 4.00162
-0.39206 -0.04912 -0.55837 35.95608 -37.17516 -13.59064 51.35926 2.68324 2.90587 -0.54464 -11.84694 -2.11994 -21.58522 -16.90452 16.52375 105.90158 78.49938 -19.12887 -2.10162 155.35196 48.88136 87.14638 5.78691 -82.81234 -1.01831 -4.33438 33.91767 -15.11429 -38.33078 -1.07689 -15.84797 14.91765 4.87285 51.18494 -0.77264 15.87066 -19.40066 -7.65059 3.52798 4.00643
